<?xml version="1.0" encoding="UTF-8"?>
<svg width="624px" height="110px" viewBox="0 0 624 110" version="1.1" xmlns="http://www.w3.org/2000/svg" xmlns:xlink="http://www.w3.org/1999/xlink">
    <!-- Generator: Sketch 49.3 (51167) - http://www.bohemiancoding.com/sketch -->
    <title>logo</title>
    <desc>Created with Sketch.</desc>
    <defs></defs>
    <g id="logo" stroke="none" stroke-width="1" fill="none" fill-rule="evenodd">
        <g id="logo-brickblock-horizontal">
            <g id="logo-brickblock" transform="translate(160.000000, 20.000000)" fill="#FEFEFE">
                <path d="M15.457102,28.05 L30.403102,28.05 C33.0351152,28.05 35.1970936,27.4233396 36.889102,26.17 C38.5811105,24.9166604 39.427102,22.8800141 39.427102,20.06 C39.427102,18.4933255 39.1451049,17.2086717 38.581102,16.206 C38.0170992,15.2033283 37.2651067,14.4200028 36.325102,13.856 C35.3850973,13.2919972 34.3041081,12.9003344 33.082102,12.681 C31.8600959,12.4616656 30.5911086,12.352 29.275102,12.352 L15.457102,12.352 L15.457102,28.05 Z M0.699102033,0.884 L32.283102,0.884 C35.479118,0.884 38.3930889,1.16599718 41.025102,1.73 C43.6571152,2.29400282 45.9130926,3.21832691 47.793102,4.503 C49.6731114,5.78767309 51.1300969,7.49532268 52.164102,9.626 C53.1981072,11.7566773 53.715102,14.388651 53.715102,17.522 C53.715102,20.9060169 52.947443,23.7259887 51.412102,25.982 C49.876761,28.2380113 47.6051171,30.0866595 44.597102,31.528 C48.7331227,32.7186726 51.8194252,34.8023185 53.856102,37.779 C55.8927789,40.7556816 56.911102,44.3433123 56.911102,48.542 C56.911102,51.9260169 56.2531086,54.8556543 54.937102,57.331 C53.6210955,59.8063457 51.8507798,61.8273255 49.626102,63.394 C47.4014242,64.9606745 44.8634496,66.1199962 42.012102,66.872 C39.1607544,67.6240038 36.2311171,68 33.223102,68 L0.699102033,68 L0.699102033,0.884 Z M15.457102,56.532 L31.249102,56.532 C32.6904426,56.532 34.0690955,56.3910014 35.385102,56.109 C36.7011086,55.8269986 37.8604304,55.3570033 38.863102,54.699 C39.8657737,54.0409967 40.6647657,53.1480056 41.260102,52.02 C41.8554383,50.8919944 42.153102,49.4506754 42.153102,47.696 C42.153102,44.2493161 41.1817784,41.789674 39.239102,40.317 C37.2964257,38.844326 34.727118,38.108 31.531102,38.108 L15.457102,38.108 L15.457102,56.532 Z M64.0651021,19.402 L76.7551021,19.402 L76.7551021,28.426 L76.9431021,28.426 C77.5697719,26.9219925 78.4157634,25.5276731 79.4811021,24.243 C80.5464407,22.9583269 81.7684285,21.8616712 83.1471021,20.953 C84.5257756,20.0443288 85.9984276,19.3393358 87.5651021,18.838 C89.1317766,18.3366642 90.7610936,18.086 92.4531021,18.086 C93.3304398,18.086 94.3017634,18.2426651 95.3671021,18.556 L95.3671021,30.964 C94.7404323,30.838666 93.9884398,30.7290005 93.1111021,30.635 C92.2337643,30.5409995 91.3877728,30.494 90.5731021,30.494 C88.1290898,30.494 86.0611105,30.9013293 84.3691021,31.716 C82.6770936,32.5306707 81.3141072,33.642993 80.2801021,35.053 C79.2460969,36.4630071 78.5097709,38.1079906 78.0711021,39.988 C77.6324332,41.8680094 77.4131021,43.9046557 77.4131021,46.098 L77.4131021,68 L64.0651021,68 L64.0651021,19.402 Z M112.955102,11.882 L99.6071021,11.882 L99.6071021,0.884 L112.955102,0.884 L112.955102,11.882 Z M99.6071021,19.402 L112.955102,19.402 L112.955102,68 L99.6071021,68 L99.6071021,19.402 Z M155.171102,36.51 C154.293764,30.9326388 151.003797,28.144 145.301102,28.144 C143.170425,28.144 141.384443,28.6296618 139.943102,29.601 C138.501762,30.5723382 137.326773,31.825659 136.418102,33.361 C135.509431,34.896341 134.867104,36.5883241 134.491102,38.437 C134.1151,40.2856759 133.927102,42.1186576 133.927102,43.936 C133.927102,45.6906754 134.1151,47.4766576 134.491102,49.294 C134.867104,51.1113424 135.478098,52.756326 136.324102,54.229 C137.170106,55.701674 138.313762,56.9079953 139.755102,57.848 C141.196443,58.7880047 142.951092,59.258 145.019102,59.258 C148.215118,59.258 150.67476,58.3650089 152.398102,56.579 C154.121444,54.7929911 155.202433,52.396015 155.641102,49.388 L168.519102,49.388 C167.641764,55.8426989 165.135123,60.7619831 160.999102,64.146 C156.863081,67.5300169 151.567801,69.222 145.113102,69.222 C141.478417,69.222 138.141451,68.6110061 135.102102,67.389 C132.062754,66.1669939 129.477779,64.4593443 127.347102,62.266 C125.216425,60.0726557 123.555775,57.4563485 122.365102,54.417 C121.174429,51.3776515 120.579102,48.0406848 120.579102,44.406 C120.579102,40.6459812 121.12743,37.1523495 122.224102,33.925 C123.320774,30.6976505 124.934425,27.9090118 127.065102,25.559 C129.195779,23.2089883 131.79642,21.3760066 134.867102,20.06 C137.937784,18.7439934 141.447082,18.086 145.395102,18.086 C148.277783,18.086 151.050755,18.4619962 153.714102,19.214 C156.377449,19.9660038 158.758758,21.109659 160.858102,22.645 C162.957446,24.180341 164.665096,26.0916552 165.981102,28.379 C167.297109,30.6663448 168.049101,33.376651 168.237102,36.51 L155.171102,36.51 Z M175.861102,0.884 L189.209102,0.884 L189.209102,36.886 L206.035102,19.402 L221.827102,19.402 L203.497102,37.262 L223.895102,68 L207.727102,68 L194.379102,46.286 L189.209102,51.268 L189.209102,68 L175.861102,68 L175.861102,0.884 Z M262.821102,43.748 C262.821102,41.6799897 262.601771,39.7060094 262.163102,37.826 C261.724433,35.9459906 261.035107,34.2853405 260.095102,32.844 C259.155097,31.4026595 257.980109,30.2590042 256.570102,29.413 C255.160095,28.5669958 253.452446,28.144 251.447102,28.144 C249.504426,28.144 247.812443,28.5669958 246.371102,29.413 C244.929762,30.2590042 243.739107,31.4026595 242.799102,32.844 C241.859097,34.2853405 241.169771,35.9459906 240.731102,37.826 C240.292433,39.7060094 240.073102,41.6799897 240.073102,43.748 C240.073102,45.7533434 240.292433,47.6959906 240.731102,49.576 C241.169771,51.4560094 241.859097,53.1166595 242.799102,54.558 C243.739107,55.9993405 244.929762,57.1429958 246.371102,57.989 C247.812443,58.8350042 249.504426,59.258 251.447102,59.258 C253.452446,59.258 255.160095,58.8350042 256.570102,57.989 C257.980109,57.1429958 259.155097,55.9993405 260.095102,54.558 C261.035107,53.1166595 261.724433,51.4560094 262.163102,49.576 C262.601771,47.6959906 262.821102,45.7533434 262.821102,43.748 Z M227.195102,0.884 L240.543102,0.884 L240.543102,25.324 L240.731102,25.324 C242.360444,22.8173208 244.569422,20.9843391 247.358102,19.825 C250.146783,18.6656609 253.045087,18.086 256.053102,18.086 C258.497114,18.086 260.909757,18.5873283 263.291102,19.59 C265.672447,20.5926717 267.818759,22.1279897 269.730102,24.196 C271.641445,26.2640103 273.19243,28.9116505 274.383102,32.139 C275.573775,35.3663495 276.169102,39.2046444 276.169102,43.654 C276.169102,48.1033556 275.573775,51.9416505 274.383102,55.169 C273.19243,58.3963495 271.641445,61.0439897 269.730102,63.112 C267.818759,65.1800103 265.672447,66.7153283 263.291102,67.718 C260.909757,68.7206717 258.497114,69.222 256.053102,69.222 C252.481084,69.222 249.285116,68.6580056 246.465102,67.53 C243.645088,66.4019944 241.514443,64.4906801 240.073102,61.796 L239.885102,61.796 L239.885102,68 L227.195102,68 L227.195102,0.884 Z M283.605102,0.884 L296.953102,0.884 L296.953102,68 L283.605102,68 L283.605102,0.884 Z M317.925102,43.748 C317.925102,45.6906764 318.1131,47.5863241 318.489102,49.435 C318.865104,51.2836759 319.507431,52.944326 320.416102,54.417 C321.324773,55.889674 322.531095,57.0646623 324.035102,57.942 C325.53911,58.8193377 327.419091,59.258 329.675102,59.258 C331.931113,59.258 333.826761,58.8193377 335.362102,57.942 C336.897443,57.0646623 338.119431,55.889674 339.028102,54.417 C339.936773,52.944326 340.5791,51.2836759 340.955102,49.435 C341.331104,47.5863241 341.519102,45.6906764 341.519102,43.748 C341.519102,41.8053236 341.331104,39.8940094 340.955102,38.014 C340.5791,36.1339906 339.936773,34.4733405 339.028102,33.032 C338.119431,31.5906595 336.897443,30.4156712 335.362102,29.507 C333.826761,28.5983288 331.931113,28.144 329.675102,28.144 C327.419091,28.144 325.53911,28.5983288 324.035102,29.507 C322.531095,30.4156712 321.324773,31.5906595 320.416102,33.032 C319.507431,34.4733405 318.865104,36.1339906 318.489102,38.014 C318.1131,39.8940094 317.925102,41.8053236 317.925102,43.748 Z M304.577102,43.748 C304.577102,39.8626472 305.17243,36.3376825 306.363102,33.173 C307.553775,30.0083175 309.245758,27.3136778 311.439102,25.089 C313.632446,22.8643222 316.26442,21.1410061 319.335102,19.919 C322.405784,18.6969939 325.852416,18.086 329.675102,18.086 C333.497788,18.086 336.960087,18.6969939 340.062102,19.919 C343.164118,21.1410061 345.811758,22.8643222 348.005102,25.089 C350.198446,27.3136778 351.89043,30.0083175 353.081102,33.173 C354.271775,36.3376825 354.867102,39.8626472 354.867102,43.748 C354.867102,47.6333528 354.271775,51.142651 353.081102,54.276 C351.89043,57.409349 350.198446,60.0883222 348.005102,62.313 C345.811758,64.5376778 343.164118,66.2453274 340.062102,67.436 C336.960087,68.6266726 333.497788,69.222 329.675102,69.222 C325.852416,69.222 322.405784,68.6266726 319.335102,67.436 C316.26442,66.2453274 313.632446,64.5376778 311.439102,62.313 C309.245758,60.0883222 307.553775,57.409349 306.363102,54.276 C305.17243,51.142651 304.577102,47.6333528 304.577102,43.748 Z M395.203102,36.51 C394.325765,30.9326388 391.035797,28.144 385.333102,28.144 C383.202425,28.144 381.416443,28.6296618 379.975102,29.601 C378.533762,30.5723382 377.358773,31.825659 376.450102,33.361 C375.541431,34.896341 374.899104,36.5883241 374.523102,38.437 C374.1471,40.2856759 373.959102,42.1186576 373.959102,43.936 C373.959102,45.6906754 374.1471,47.4766576 374.523102,49.294 C374.899104,51.1113424 375.510098,52.756326 376.356102,54.229 C377.202106,55.701674 378.345762,56.9079953 379.787102,57.848 C381.228443,58.7880047 382.983092,59.258 385.051102,59.258 C388.247118,59.258 390.70676,58.3650089 392.430102,56.579 C394.153444,54.7929911 395.234433,52.396015 395.673102,49.388 L408.551102,49.388 C407.673765,55.8426989 405.167123,60.7619831 401.031102,64.146 C396.895082,67.5300169 391.599801,69.222 385.145102,69.222 C381.510417,69.222 378.173451,68.6110061 375.134102,67.389 C372.094754,66.1669939 369.50978,64.4593443 367.379102,62.266 C365.248425,60.0726557 363.587775,57.4563485 362.397102,54.417 C361.20643,51.3776515 360.611102,48.0406848 360.611102,44.406 C360.611102,40.6459812 361.15943,37.1523495 362.256102,33.925 C363.352774,30.6976505 364.966425,27.9090118 367.097102,25.559 C369.22778,23.2089883 371.82842,21.3760066 374.899102,20.06 C377.969784,18.7439934 381.479082,18.086 385.427102,18.086 C388.309783,18.086 391.082756,18.4619962 393.746102,19.214 C396.409449,19.9660038 398.790758,21.109659 400.890102,22.645 C402.989446,24.180341 404.697096,26.0916552 406.013102,28.379 C407.329109,30.6663448 408.081101,33.376651 408.269102,36.51 L395.203102,36.51 Z M415.893102,0.884 L429.241102,0.884 L429.241102,36.886 L446.067102,19.402 L461.859102,19.402 L443.529102,37.262 L463.927102,68 L447.759102,68 L434.411102,46.286 L429.241102,51.268 L429.241102,68 L415.893102,68 L415.893102,0.884 Z"></path>
            </g>
            <g id="logo-brickblock-icon" stroke-width="1">
                <g transform="translate(0.000000, 0.000000)">
                    <polygon id="Rectangle-2" fill="#D8D8D8" points="50 55 99 28 99 83 50 110"></polygon>
                    <polygon id="Rectangle-2-Copy" fill="#FEFEFE" points="0 27.2377143 49 0.237714286 99 28.2377143 50 55.2377143"></polygon>
                </g>
            </g>
        </g>
    </g>
</svg>